<?xml version="1.0" standalone="no"?><!DOCTYPE svg PUBLIC "-//W3C//DTD SVG 1.1//EN" "http://www.w3.org/Graphics/SVG/1.1/DTD/svg11.dtd"><svg t="1768186529858" class="icon" viewBox="0 0 1024 1024" version="1.1" xmlns="http://www.w3.org/2000/svg" p-id="2936" xmlns:xlink="http://www.w3.org/1999/xlink" width="200" height="200"><path d="M510.414861 41.213622c-208.354939 0-377.263158 169.284425-377.263158 378.104339C133.151703 628.146328 510.414861 1001.80805 510.414861 1001.80805S887.678019 628.146328 887.678019 419.317961c0-208.819913-168.908219-378.104338-377.263158-378.104339z m0 621.374613C375.593478 662.588235 266.303406 553.298163 266.303406 418.47678s109.290072-244.111455 244.111455-244.111455S754.526316 283.655397 754.526316 418.47678s-109.290072 244.111455-244.111455 244.111455z" fill="#F3A813" p-id="2937"></path><path d="M474.282138 215.578947h-16.130377l-20.162973 20.264421v81.061912H393.638704l-16.130378 28.37188h96.773812V215.578947z m21.405722 143.833429l-1.246977 99.352305h120.965152s-14.11408-206.710621-108.867368-206.710621h-28.223934v89.16937h5.545874c4.277763 0.004227 11.827253 5.592372 11.827253 18.188946zM317.027864 462.818411v12.161189h415.306501v-12.161189H317.027864z m173.380425 40.533069h129.026113v-20.264421h-129.026113v20.264421z m0 32.42561h129.026113v-20.268648h-129.026113v20.268648z" fill="#F3A813" p-id="2938"></path></svg>