<?xml version="1.0" standalone="no"?><!DOCTYPE svg PUBLIC "-//W3C//DTD SVG 1.1//EN" "http://www.w3.org/Graphics/SVG/1.1/DTD/svg11.dtd"><svg t="1767079288703" class="icon" viewBox="0 0 1024 1024" version="1.1" xmlns="http://www.w3.org/2000/svg" p-id="11921" xmlns:xlink="http://www.w3.org/1999/xlink" width="200" height="200"><path d="M691.050667 120.341333c-128.896 1.322667-247.168 130.133333-229.888 299.008 13.290667 130.133333 182.058667 423.914667 231.232 443.861334l5.312 1.322666 5.312-2.666666c49.066667-19.925333 216.618667-309.632 224.576-459.797334 7.957333-152.810667-108.970667-283.050667-236.544-281.728z m2.666666 346.837334a94.357333 94.357333 0 1 1 94.357334-94.357334 94.72 94.72 0 0 1-94.378667 94.378667z" p-id="11922" fill="#ff4d4f"></path><path d="M275.093333 863.210667h660.458667v49.066666H275.093333z m98.346667-741.525334H106.389333a18.922667 18.922667 0 0 0-21.333333 18.602667 21.034667 21.034667 0 0 0 22.592 18.602667h267.114667a20.970667 20.970667 0 0 0 22.592-18.602667 22.336 22.336 0 0 0-23.914667-18.602667z" p-id="11923" fill="#ff4d4f"></path><path d="M143.530667 158.890667v665.770666a97.024 97.024 0 1 0 194.026666 0V158.890667z m174.08 342.848H162.133333V174.826667h155.477334z" p-id="11924" fill="#ff4d4f"></path><path d="M240.533333 941.610667a111.530667 111.530667 0 0 1-79.744-33.322667 120.128 120.128 0 0 1-33.216-82.282667l1.322667-685.717333h225.92l-1.322667 684.373333a117.333333 117.333333 0 0 1-112.96 116.949334zM159.573333 519.018667v305.642666a78.336 78.336 0 0 0 22.485334 55.893334 81.749333 81.749333 0 0 0 139.541333-57.152v-305.706667H159.573333z m18.602667-34.56h124.906667V193.450667h-125.013334z" p-id="11925" fill="#ff4d4f"></path></svg>